Coordinates
version=1
nRows=27
nColumns=38
inDegrees=no

Units are S.I. units (second, meters, Newtons, ...)
If the header above contains a line with 'inDegrees', this indicates whether rotational values are in degrees (yes) or radians (no).

endheader
time	pelvis_tilt	pelvis_list	pelvis_rotation	pelvis_tx	pelvis_ty	pelvis_tz	hip_flexion_r	hip_adduction_r	hip_rotation_r	knee_angle_r	ankle_angle_r	subtalar_angle_r	mtp_angle_r	hip_flexion_l	hip_adduction_l	hip_rotation_l	knee_angle_l	ankle_angle_l	subtalar_angle_l	mtp_angle_l	lumbar_extension	lumbar_bending	lumbar_rotation	arm_flex_r	arm_add_r	arm_rot_r	elbow_flex_r	pro_sup_r	wrist_flex_r	wrist_dev_r	arm_flex_l	arm_add_l	arm_rot_l	elbow_flex_l	pro_sup_l	wrist_flex_l	wrist_dev_l
66.44	-0.126949	1.38448	1.73739	0.671948	0.261547	0.923917	0.767591	-0.0665833	-0.011048	1.00589	-0.0857244	0	0	0.662191	-0.147285	-0.139791	0.934892	-0.107855	0	0	-0.717499	-0.0810152	0.185515	0.393437	-0.764503	-0.16117	1.60706	0.576784	0	0	1.11429	-0.40029	0.624764	1.24231	0.794702	0	0
66.45	-0.12341	1.37834	1.7325	0.672405	0.260156	0.919932	0.785065	-0.0668772	-0.0107344	1.02095	-0.0819958	0	0	0.680196	-0.147947	-0.134536	0.954348	-0.101693	0	0	-0.722727	-0.0843749	0.185953	0.404209	-0.768157	-0.158952	1.60586	0.575996	0	0	1.12155	-0.39866	0.621359	1.24372	0.797517	0	0
66.46	-0.122089	1.3739	1.73045	0.672713	0.258624	0.916116	0.800346	-0.068368	-0.0118222	1.03555	-0.0781107	0	0	0.696547	-0.148	-0.129123	0.973613	-0.0960727	0	0	-0.730681	-0.0849947	0.185035	0.419248	-0.771394	-0.155118	1.60581	0.576186	0	0	1.12795	-0.398613	0.615698	1.24582	0.800257	0	0
66.47	-0.122969	1.36852	1.73109	0.672993	0.257095	0.912233	0.816179	-0.0706162	-0.012364	1.04976	-0.0740182	0	0	0.71363	-0.147249	-0.123815	0.992029	-0.0909936	0	0	-0.737714	-0.0859734	0.183397	0.434218	-0.774424	-0.150747	1.60556	0.577338	0	0	1.13458	-0.398666	0.610407	1.24794	0.803518	0	0
66.48	-0.123975	1.36279	1.73198	0.673248	0.255539	0.90831	0.831959	-0.0725732	-0.0120194	1.06336	-0.0697785	0	0	0.730851	-0.146414	-0.118856	1.00945	-0.0861644	0	0	-0.744414	-0.0865377	0.181718	0.449724	-0.778528	-0.144736	1.60548	0.578516	0	0	1.14083	-0.398468	0.604207	1.25008	0.806814	0	0
66.49	-0.124963	1.35696	1.73291	0.673462	0.253959	0.904383	0.847675	-0.0741107	-0.0108254	1.07663	-0.0657121	0	0	0.747839	-0.145533	-0.114267	1.02597	-0.081435	0	0	-0.750751	-0.0860041	0.179143	0.467884	-0.782377	-0.13637	1.60476	0.57819	0	0	1.14559	-0.399044	0.595908	1.2524	0.809955	0	0
66.5	-0.125907	1.3509	1.73373	0.673712	0.252366	0.900527	0.86368	-0.0748164	-0.00861863	1.0897	-0.0622502	0	0	0.764585	-0.144567	-0.109913	1.04154	-0.0770358	0	0	-0.757021	-0.0855836	0.176407	0.486824	-0.785906	-0.127667	1.60356	0.577249	0	0	1.15047	-0.39971	0.58742	1.25479	0.812986	0	0
66.51	-0.127308	1.34483	1.73489	0.673988	0.250745	0.896806	0.879892	-0.0749759	-0.00550697	1.10271	-0.0598565	0	0	0.780842	-0.143437	-0.105892	1.05622	-0.073113	0	0	-0.763528	-0.0853425	0.173753	0.506524	-0.789372	-0.118538	1.60179	0.57674	0	0	1.1557	-0.40003	0.579013	1.25674	0.815792	0	0
66.52	-0.129068	1.33894	1.73651	0.67421	0.249071	0.893245	0.896048	-0.0749849	-0.00226909	1.11575	-0.0583923	0	0	0.796465	-0.142068	-0.102239	1.07014	-0.0695006	0	0	-0.770584	-0.0852857	0.170975	0.527	-0.792833	-0.109102	1.59933	0.57774	0	0	1.16193	-0.400402	0.571628	1.25842	0.818292	0	0
66.53	-0.131003	1.33371	1.7381	0.674396	0.24736	0.88992	0.911418	-0.0748232	0.000890955	1.12844	-0.0574188	0	0	0.810837	-0.140889	-0.0993224	1.08313	-0.0669039	0	0	-0.778586	-0.0854517	0.168882	0.547665	-0.796814	-0.0999536	1.59629	0.581944	0	0	1.16945	-0.399792	0.565025	1.25904	0.820281	0	0
66.54	-0.129399	1.32306	1.73656	0.674482	0.245579	0.886146	0.933241	-0.0750672	0.00433743	1.14175	-0.0585271	0	0	0.831673	-0.138651	-0.0948015	1.09652	-0.0634329	0	0	-0.780401	-0.0852546	0.165962	0.567848	-0.801216	-0.089089	1.59344	0.564785	0	0	1.17386	-0.399256	0.555037	1.2609	0.828849	0	0
66.55	-0.129927	1.31465	1.73713	0.674558	0.243782	0.882803	0.951657	-0.0757513	0.0074245	1.15341	-0.0581915	0	0	0.849234	-0.136453	-0.0911008	1.10833	-0.0615133	0	0	-0.785065	-0.0856439	0.163896	0.587578	-0.805702	-0.0802745	1.59037	0.562936	0	0	1.18129	-0.397982	0.548547	1.26161	0.833207	0	0
66.56	-0.130384	1.30561	1.73778	0.674586	0.241971	0.879534	0.970111	-0.0766631	0.0105318	1.16394	-0.0572385	0	0	0.867154	-0.134022	-0.0876084	1.11942	-0.0600138	0	0	-0.789303	-0.0859207	0.162073	0.606989	-0.810646	-0.0718387	1.58748	0.56194	0	0	1.18887	-0.396357	0.54229	1.26245	0.83752	0	0
66.57	-0.13092	1.29666	1.73848	0.674637	0.240173	0.876411	0.987388	-0.0770556	0.0136633	1.17288	-0.0554273	0	0	0.884425	-0.131842	-0.0849138	1.12956	-0.058955	0	0	-0.793781	-0.0864845	0.160454	0.626111	-0.815664	-0.0639392	1.58456	0.561055	0	0	1.19705	-0.394436	0.536704	1.26317	0.841176	0	0
66.58	-0.131887	1.28669	1.73969	0.674706	0.238406	0.873346	1.00451	-0.0769691	0.0167048	1.18016	-0.0522055	0	0	0.902259	-0.129543	-0.083131	1.13876	-0.0581823	0	0	-0.797476	-0.0874937	0.158255	0.644949	-0.820181	-0.0562884	1.58187	0.559393	0	0	1.20489	-0.393032	0.530857	1.26481	0.84504	0	0
66.59	-0.13404	1.27725	1.74197	0.674799	0.236712	0.870462	1.02003	-0.0774475	0.0195709	1.18578	-0.0487753	0	0	0.918761	-0.127493	-0.0827261	1.14692	-0.0575051	0	0	-0.801641	-0.0891977	0.155546	0.6639	-0.823863	-0.0485631	1.57864	0.557589	0	0	1.21297	-0.391839	0.525296	1.26651	0.847692	0	0
66.6	-0.136558	1.27015	1.74447	0.674874	0.23497	0.867836	1.03262	-0.0780495	0.0221624	1.19055	-0.0458066	0	0	0.932672	-0.125994	-0.0828042	1.15498	-0.0567827	0	0	-0.808117	-0.089365	0.152188	0.686912	-0.827402	-0.0369196	1.57481	0.555978	0	0	1.22067	-0.392408	0.518991	1.26847	0.848641	0	0
66.61	-0.138391	1.26256	1.74608	0.674902	0.233291	0.865216	1.04587	-0.0781805	0.0255322	1.1956	-0.0439631	0	0	0.946891	-0.124644	-0.0827494	1.16279	-0.0559669	0	0	-0.813544	-0.0891417	0.149084	0.709552	-0.830428	-0.025257	1.57107	0.554972	0	0	1.2273	-0.393101	0.512109	1.27045	0.850252	0	0
66.62	-0.140522	1.25555	1.74763	0.674945	0.231685	0.862634	1.05913	-0.0786355	0.0282593	1.20172	-0.0435745	0	0	0.96017	-0.123713	-0.0829357	1.17025	-0.0550829	0	0	-0.818714	-0.0896338	0.146601	0.73032	-0.832826	-0.0152187	1.56703	0.554533	0	0	1.23426	-0.392915	0.50629	1.27115	0.852223	0	0
66.63	-0.142693	1.24894	1.74898	0.67496	0.230166	0.860064	1.07267	-0.0795632	0.0302287	1.20903	-0.0438959	0	0	0.972734	-0.123101	-0.0833487	1.17755	-0.0541003	0	0	-0.82343	-0.0899145	0.14494	0.74961	-0.835642	-0.00588362	1.56353	0.553717	0	0	1.24056	-0.391501	0.500534	1.27057	0.854906	0	0
66.64	-0.144322	1.24313	1.74974	0.674917	0.228717	0.857547	1.08576	-0.0808043	0.0314078	1.21692	-0.0443931	0	0	0.984381	-0.122815	-0.0837324	1.18491	-0.0530529	0	0	-0.828458	-0.0898815	0.143697	0.768184	-0.838964	0.00338445	1.56049	0.55304	0	0	1.24701	-0.390594	0.495972	1.27019	0.856235	0	0
66.65	-0.14501	1.23677	1.74976	0.674808	0.227321	0.854946	1.09962	-0.082344	0.0321444	1.22501	-0.0448228	0	0	0.996902	-0.122481	-0.083761	1.19286	-0.0518194	0	0	-0.832088	-0.0897424	0.141839	0.786149	-0.840941	0.0128785	1.55711	0.552576	0	0	1.2527	-0.39074	0.491498	1.2707	0.856769	0	0
66.66	-0.145276	1.23008	1.74938	0.674678	0.225975	0.852319	1.11372	-0.0835347	0.0332731	1.23287	-0.0444714	0	0	1.00974	-0.122187	-0.0836767	1.20083	-0.0506079	0	0	-0.834819	-0.0895014	0.139918	0.803158	-0.842395	0.0220524	1.55396	0.552168	0	0	1.2579	-0.391364	0.487202	1.27136	0.856979	0	0
66.67	-0.145435	1.2233	1.7489	0.674545	0.224707	0.84969	1.12737	-0.0841691	0.0349949	1.23999	-0.0425589	0	0	1.02251	-0.121899	-0.0834582	1.20859	-0.0493605	0	0	-0.836971	-0.089259	0.13788	0.819301	-0.843437	0.0309822	1.55076	0.552488	0	0	1.2625	-0.392272	0.482985	1.27201	0.857178	0	0
66.68	-0.145768	1.21646	1.74894	0.674439	0.223564	0.846997	1.14003	-0.0848454	0.0364887	1.24592	-0.0382272	0	0	1.03531	-0.121329	-0.0829457	1.21635	-0.0478623	0	0	-0.838361	-0.0890861	0.135151	0.834395	-0.843555	0.039847	1.54737	0.553075	0	0	1.26675	-0.39421	0.479555	1.27305	0.85671	0	0
66.69	-0.146136	1.20964	1.74939	0.674362	0.222544	0.844202	1.15174	-0.0854722	0.0378799	1.25103	-0.0325088	0	0	1.04832	-0.120418	-0.0820198	1.2245	-0.0460264	0	0	-0.83867	-0.0888573	0.131916	0.848192	-0.842532	0.0485035	1.54345	0.554265	0	0	1.26996	-0.396188	0.475798	1.2736	0.857039	0	0
66.7	-0.14704	1.20472	1.75063	0.674316	0.221614	0.8415	1.16086	-0.0857499	0.0394793	1.25581	-0.0282496	0	0	1.0594	-0.119321	-0.0808769	1.23287	-0.0443273	0	0	-0.840061	-0.0882301	0.12889	0.861489	-0.840707	0.0565765	1.53896	0.556005	0	0	1.27304	-0.397049	0.472073	1.27231	0.85788	0	0
